<svg version="1.1" id="Layer_1" xmlns="http://www.w3.org/2000/svg" xmlns:xlink="http://www.w3.org/1999/xlink" x="0px" y="0px"
	 width="100%" viewBox="0 0 360 360" enable-background="new 0 0 360 360" xml:space="preserve">
<path fill="none" opacity="1.000000" stroke="#000000" stroke-linecap="round" stroke-linejoin="round" stroke-width="4.000000"
	d="
M58.000000,110.500000 
	C61.555130,117.402885 62.265141,125.005035 63.531231,132.494720 
	C66.081306,147.579941 61.024471,161.633759 58.063564,176.013092 
	C55.448406,188.713333 55.196682,201.478409 56.225945,214.521622 
	C57.312992,228.297165 59.655884,242.109406 58.389782,255.989944 
	C57.897697,261.384827 55.832043,266.619904 55.078938,272.011017 
	C53.967358,279.968323 54.094437,288.011627 55.026424,295.996918 
	C56.078403,305.010315 56.921791,314.079315 58.636055,322.973785 
	C59.905029,329.557892 59.154938,335.458130 56.617271,341.548859 
	C55.248322,344.834503 53.023495,347.291748 50.994946,349.996216 
	C48.548336,353.258057 48.969547,354.931091 53.013474,355.946350 
	C58.095596,357.222229 63.334122,356.324005 68.501091,356.457825 
	C70.274704,356.503784 71.272369,355.279449 71.502884,353.500366 
	C71.654312,352.331757 72.160873,351.101593 71.944199,350.011078 
	C70.919044,344.851288 71.671577,339.581451 71.156021,334.535156 
	C70.645805,329.541046 71.565880,324.819824 71.412491,320.002777 
	C71.083672,309.676544 74.227715,299.962982 75.913712,289.985413 
	C76.744408,285.069458 77.142105,279.974487 76.875526,275.006683 
	C76.566185,269.242126 75.715309,263.500732 78.036057,258.015259 
	C80.844528,251.376984 79.023392,244.299698 80.247772,237.454880 
	C81.205154,232.102707 82.565437,226.823257 83.693192,221.541245 
	C85.576057,212.722580 85.301422,203.846085 86.001770,195.000137 
	C86.120804,193.496689 86.263092,191.995102 86.392975,190.511673 
	C91.381020,189.969650 89.931808,194.484741 89.780853,195.977844 
	C88.619041,207.469666 90.828728,218.561600 93.651352,229.460800 
	C95.758347,237.596725 94.209106,246.096298 96.634026,253.958664 
	C100.149170,265.355804 96.888290,277.134003 99.484764,288.503479 
	C101.231438,296.151855 104.170570,303.843201 104.114182,311.497162 
	C104.060570,318.774933 107.494652,326.035950 103.883728,333.681244 
	C102.646950,336.299805 105.377426,341.013702 104.560883,345.012421 
	C104.064148,347.445038 104.008499,350.002747 104.052002,352.499084 
	C104.084526,354.364899 104.821754,356.432220 106.999710,356.423859 
	C112.164391,356.404083 117.368866,357.090271 122.496246,355.982635 
	C124.238892,355.606201 125.887421,354.960999 126.659058,352.506042 
	C122.209106,348.392792 119.524742,342.865509 117.518951,336.993530 
	C115.059959,329.794800 117.647026,322.661621 118.006317,315.500305 
	C118.544838,304.766388 121.652596,294.337494 121.583488,283.499481 
	C121.540009,276.680939 120.694679,270.036041 118.960403,263.510529 
	C116.579048,254.550186 117.164902,245.502167 118.126755,236.513565 
	C118.572296,232.350006 118.847885,228.127640 119.274872,223.976837 
	C120.605637,211.040009 121.667969,197.943604 119.391045,185.019196 
	C117.787994,175.919907 114.828072,167.065369 113.074974,157.985519 
	C110.024010,142.183609 110.848351,126.585518 117.000000,111.500000 
"/>
<path fill="none" opacity="1.000000" stroke="#000000" stroke-linecap="round" stroke-linejoin="round" stroke-width="4.000000"
	d="
M305.500000,111.000000 
	C302.327667,114.193680 302.549164,118.664139 301.647552,122.534370 
	C298.055328,137.953903 298.584625,153.400726 303.590668,168.469879 
	C305.397217,173.908096 305.663849,179.531296 306.313324,185.022079 
	C308.020752,199.456741 307.182678,214.045685 306.291199,228.487106 
	C305.405701,242.830582 304.797974,256.827850 308.209747,271.069519 
	C310.242035,279.552948 309.637787,288.618988 307.684357,297.540375 
	C305.827820,306.019470 305.777008,314.877655 304.400421,323.484070 
	C303.516296,329.011566 303.765259,334.258514 305.505157,339.498291 
	C306.836578,343.507935 308.325745,347.426300 311.995056,350.007050 
	C313.187286,350.845612 313.772949,351.956451 313.518829,353.503082 
	C313.176727,355.584778 311.171997,355.761688 309.988007,355.879486 
	C305.350677,356.340942 300.667419,356.426422 295.999725,356.465363 
	C293.165558,356.489044 291.618561,354.837433 291.513153,351.999512 
	C291.412476,349.288483 292.348755,346.573944 292.342682,344.000366 
	C292.316742,333.001404 293.451111,321.922150 291.434143,311.012177 
	C290.098053,303.785217 288.572357,296.586548 286.581177,289.477264 
	C284.432678,281.806396 285.768524,273.835876 285.511108,265.999634 
	C285.410065,262.924103 285.400665,259.965332 284.135773,256.943176 
	C282.992767,254.212296 282.509796,250.987015 282.588837,248.002350 
	C282.861816,237.695679 279.765137,227.960617 278.011108,217.998047 
	C277.602631,215.677948 277.306396,213.336807 277.005157,210.999344 
	C276.167511,204.499893 273.400909,198.247742 274.500000,191.500000 
"/>
<path fill="none" opacity="1.000000" stroke="#000000" stroke-linecap="round" stroke-linejoin="round" stroke-width="4.000000"
	d="
M243.000000,111.500000 
	C246.118011,116.918663 246.813370,123.041321 247.971115,129.005600 
	C249.922409,139.057800 250.515076,149.028519 247.106918,159.036407 
	C245.412048,164.013290 244.150238,169.169159 243.372299,174.481293 
	C241.861725,184.795929 241.414261,195.111908 241.476776,205.500137 
	C241.548492,217.419785 243.341629,229.178619 244.392685,241.009537 
	C245.197021,250.063278 244.189423,259.068390 242.109818,268.025482 
	C239.814011,277.913818 240.016937,287.961700 241.927307,298.013824 
	C243.148605,304.440094 243.658005,311.001129 244.504639,317.499390 
	C244.809158,319.836487 245.294769,322.156647 245.478073,324.501709 
	C246.322601,335.305481 244.041199,345.026611 235.208817,352.216980 
	C237.013031,357.179016 241.412384,356.011597 244.519104,356.239258 
	C246.754318,356.403046 249.168915,356.464233 251.499542,356.519348 
	C256.640411,356.640961 259.741577,353.364227 258.423706,348.520752 
	C257.218048,344.089569 257.204895,339.904114 258.367767,335.465363 
	C258.836670,333.675537 257.640259,331.510437 257.531525,329.498291 
	C256.853760,316.957672 258.941437,304.666443 261.662415,292.536438 
	C262.601959,288.347809 263.453613,284.287720 263.532532,280.000610 
	C263.689667,271.467224 262.442749,262.818115 265.492706,254.497330 
	C267.327820,249.490845 266.292725,244.133347 267.392731,238.977112 
	C268.830597,232.237198 269.212616,225.273773 270.611572,218.523117 
	C271.405640,214.691360 272.629272,210.951675 272.453979,207.002045 
	C272.385498,205.458633 272.839386,204.383545 274.000000,203.500000 
"/>
<path fill="none" opacity="1.000000" stroke="#000000" stroke-linecap="round" stroke-linejoin="round" stroke-width="3.000000"
	d="
M325.000000,198.500000 
	C326.426056,201.197571 324.676422,202.840530 322.998291,204.498291 
	C321.444275,206.033463 321.454590,208.165146 322.640991,209.360016 
	C323.477448,210.202499 325.232422,209.183060 326.556976,208.067657 
	C333.901031,201.883286 333.357300,193.383377 332.232880,185.538284 
	C331.169159,178.116486 331.094086,170.725693 331.742096,163.521774 
	C332.738373,152.446640 332.744476,141.785980 329.668701,130.952103 
	C327.467438,123.198517 326.671356,115.021034 325.627502,106.983444 
	C325.400299,105.234406 325.073486,103.363319 324.374390,102.067780 
	C320.654327,95.173882 323.692566,87.548912 321.584442,80.474838 
	C319.380646,73.079849 314.439087,68.557693 307.449402,66.689240 
	C303.827332,65.720993 300.596313,64.386436 297.516235,62.473850 
	C295.595551,61.281189 294.009338,59.327259 291.960144,58.614601 
	C288.602722,57.446983 285.015259,56.412506 284.626038,52.487503 
	C284.148315,47.669815 283.618530,42.533802 287.508881,38.508591 
	C289.373016,36.579849 290.960876,34.533405 292.091736,32.041630 
	C292.591339,30.940844 292.769440,29.391268 292.421570,29.090807 
	C288.283752,25.516941 290.217804,20.219130 288.509735,15.996061 
	C285.789124,9.269623 277.863190,4.709306 271.022522,6.582218 
	C265.027008,8.223725 259.091797,12.801427 259.464996,21.501501 
	C259.551239,23.512184 259.596497,25.204529 257.674530,27.170616 
	C254.364166,30.556982 257.350708,34.449650 259.647430,36.859482 
	C263.334595,40.728233 264.825531,44.766216 264.604553,50.004410 
	C264.442719,53.841038 263.316406,56.322308 259.519043,57.558533 
	C257.561188,58.195911 255.677887,59.084343 253.953629,60.441059 
	C249.842010,63.676277 245.369095,65.893166 240.048080,67.196327 
	C228.375076,70.055122 225.842346,78.745781 226.277298,89.488770 
	C226.470291,94.255852 224.145370,97.793907 223.490173,101.998466 
	C222.528305,108.171074 220.774109,114.323479 220.690216,120.502586 
	C220.593063,127.657631 216.373489,133.575775 215.993881,140.499664 
	C215.517960,149.180557 215.171509,157.784225 216.281799,166.527710 
	C217.110153,173.051010 217.177643,179.873810 215.976685,186.495773 
	C214.277832,195.863235 216.882614,203.681808 223.735748,210.228806 
	C228.541260,206.532181 220.628677,202.498276 224.500000,199.000000 
"/>
<path fill="none" opacity="1.000000" stroke="#000000" stroke-linecap="round" stroke-linejoin="round" stroke-width="3.000000"
	d="
M97.000000,48.500000 
	C96.750069,55.204811 100.586388,58.150063 106.391495,60.742928 
	C111.534996,63.040283 116.399422,65.732597 121.981049,67.078598 
	C129.389191,68.865051 133.911728,74.678581 134.213943,81.512650 
	C134.798599,94.733612 139.613861,107.220688 139.711746,120.498436 
	C139.749924,125.674652 142.081711,130.857224 143.525772,135.992752 
	C144.773682,140.430756 145.252411,145.061432 144.844269,149.485626 
	C144.106094,157.487106 145.126694,165.517273 143.643585,173.526581 
	C142.550476,179.429764 144.450577,185.472519 144.697662,191.491882 
	C145.031754,199.630630 141.420670,205.324158 136.403244,211.205368 
	C134.745316,208.305283 134.737503,208.302078 136.503326,204.001373 
	C137.373367,201.882401 136.399017,199.463806 137.137024,197.552917 
	C138.085114,195.098022 136.083664,192.744064 137.500000,190.500000 
"/>
<path fill="none" opacity="1.000000" stroke="#000000" stroke-linecap="round" stroke-linejoin="round" stroke-width="3.000000"
	d="
M72.000000,25.500000 
	C67.653870,27.654604 68.874992,31.701912 70.695595,33.832897 
	C73.861130,37.538094 74.932442,42.123020 77.435448,46.041237 
	C80.309402,50.540131 78.765099,56.697239 73.953262,58.365170 
	C66.997246,60.776333 61.211357,65.389862 53.576225,66.888382 
	C45.783421,68.417839 41.197559,75.476616 40.682793,83.511711 
	C40.235207,90.498131 39.688316,97.235161 37.707619,104.060249 
	C35.756279,110.784164 35.332561,117.982048 34.579144,125.008484 
	C34.260048,127.984375 33.438457,130.742538 32.478539,133.492508 
	C30.383432,139.494568 29.714315,145.773651 29.595501,152.001816 
	C29.322172,166.329407 31.495798,180.631104 29.627647,195.016571 
	C28.820517,201.231796 32.618153,205.736923 38.211010,209.097015 
	C36.490227,202.515076 36.800728,196.010040 37.500000,189.500000 
"/>
<path fill="none" opacity="1.000000" stroke="#000000" stroke-linecap="round" stroke-linejoin="round" stroke-width="3.000000"
	d="
M119.000000,111.500000 
	C122.169197,117.853600 124.269135,124.654877 127.326035,131.082733 
	C129.159439,134.937912 127.576286,139.697556 128.057159,143.993607 
	C129.194077,154.150543 131.795929,164.041611 134.024261,173.994568 
	C134.554871,176.364532 134.923141,178.766571 133.956619,180.981064 
	C131.176895,187.349915 133.468277,194.036026 132.500000,200.500000 
"/>
<path fill="none" opacity="1.000000" stroke="#000000" stroke-linecap="round" stroke-linejoin="round" stroke-width="3.000000"
	d="
M241.500000,91.500000 
	C239.600800,94.326012 239.710800,97.875542 240.685730,100.429092 
	C243.919846,108.899895 240.332809,116.431534 237.165009,123.346535 
	C234.465317,129.239670 233.723495,134.823029 233.375748,140.992996 
	C232.872589,149.920456 230.870453,158.669968 227.458801,166.983093 
	C225.301270,172.240311 224.606613,177.239639 227.448395,182.527725 
	C230.021561,187.315918 228.009598,192.235565 226.931183,196.984375 
	C226.141418,200.462036 223.998108,197.316269 222.500000,197.500000 
"/>
<path fill="none" opacity="1.000000" stroke="#000000" stroke-linecap="round" stroke-linejoin="round" stroke-width="3.000000"
	d="
M307.500000,91.500000 
	C308.083710,95.903877 308.250641,100.146828 306.679535,104.563858 
	C305.787781,107.070816 306.146973,110.012924 307.243835,113.091270 
	C309.107758,118.322182 310.177216,123.936012 312.614166,128.944458 
	C314.650970,133.130615 313.815979,137.300720 313.985443,141.500580 
	C314.290833,149.069229 317.474426,155.888641 319.545624,162.986679 
	C321.833984,170.828903 323.042145,178.503555 320.100739,186.536880 
	C318.575104,190.703629 319.670715,195.192154 319.474976,199.990570 
	C323.599518,198.677460 326.059082,197.513702 324.568298,193.474792 
	C324.263428,192.648834 324.833313,191.500000 324.999969,190.500000 
"/>
<path fill="none" opacity="1.000000" stroke="#000000" stroke-linecap="round" stroke-linejoin="round" stroke-width="3.000000"
	d="
M57.000000,110.500000 
	C52.111671,121.231522 46.909389,131.846283 46.478714,143.999252 
	C46.145828,153.392807 43.073425,162.318390 41.350468,171.471848 
	C40.628448,175.307709 39.697762,178.595352 41.338230,182.566818 
	C42.984280,186.551788 42.771240,191.126663 42.473068,195.498169 
	C42.382149,196.831100 43.181194,198.430740 41.971004,199.466110 
	C39.840984,201.288483 39.084862,198.245407 37.500000,198.000000 
"/>
<path fill="none" opacity="1.000000" stroke="#000000" stroke-linecap="round" stroke-linejoin="round" stroke-width="3.000000"
	d="
M101.500000,28.500000 
	C104.001373,21.545582 102.001434,13.716438 97.020065,9.973293 
	C91.922333,6.142709 82.930328,6.884509 79.040047,9.558267 
	C73.856216,13.121073 70.641319,20.532167 73.500000,28.500000 
"/>
<path fill="none" opacity="1.000000" stroke="#000000" stroke-linecap="round" stroke-linejoin="round" stroke-width="3.000000"
	d="
M103.000000,25.500000 
	C107.513847,27.625008 105.828148,31.634811 104.257317,33.826031 
	C102.603111,36.133556 101.542831,38.532753 100.534584,41.014053 
	C96.731171,50.374241 90.972176,52.678398 81.486137,48.531712 
	C80.926430,48.287045 80.166664,48.500000 79.500000,48.500000 
"/>
<path fill="none" opacity="1.000000" stroke="#000000" stroke-linecap="round" stroke-linejoin="round" stroke-width="3.000000"
	d="
M116.500000,102.000000 
	C109.497597,105.745506 102.099106,106.005493 94.500000,104.500000 
"/>
<path fill="none" opacity="1.000000" stroke="#000000" stroke-linecap="round" stroke-linejoin="round" stroke-width="3.000000"
	d="
M81.500000,104.500000 
	C73.537025,105.771706 65.775154,105.501595 58.500000,101.500000 
"/>
<path fill="none" opacity="1.000000" stroke="#000000" stroke-linecap="round" stroke-linejoin="round" stroke-width="5.000000"
	d="
M119.000000,91.000000 
	C119.321281,92.651207 120.632866,94.120216 119.524261,96.014206 
	C116.896255,100.503983 118.094002,105.457260 118.000000,110.250000 
"/>
<path fill="none" opacity="1.000000" stroke="#000000" stroke-linecap="round" stroke-linejoin="round" stroke-width="4.000000"
	d="
M56.500000,90.500000 
	C56.100594,93.419540 56.126266,96.061470 57.248390,99.093132 
	C58.387772,102.171402 57.500000,106.000000 57.500000,109.500000 
"/>
<path fill="none" opacity="1.000000" stroke="#000000" stroke-linecap="round" stroke-linejoin="round" stroke-width="3.000000"
	d="
M223.000015,190.500000 
	C223.166672,192.833328 223.333344,195.166672 223.500015,197.500000 
"/>
</svg>