<svg version="1.1" id="Layer_1" xmlns="http://www.w3.org/2000/svg" xmlns:xlink="http://www.w3.org/1999/xlink" x="0px" y="0px"
	 width="100%" viewBox="0 0 1092 1433" enable-background="new 0 0 1092 1433" xml:space="preserve">
<path fill="none" opacity="1.000000" stroke="#000000" stroke-linecap="round" stroke-linejoin="round" stroke-width="3.000000"
	d="
M1021.000000,529.000000 
	C1025.322510,525.139709 1030.246948,522.135193 1031.760132,515.559875 
	C1032.698486,511.482697 1033.117310,508.532776 1030.595947,504.932831 
	C1026.710083,499.384583 1024.976929,493.365784 1027.902100,486.458557 
	C1030.369751,480.631958 1035.401489,478.757660 1040.523682,477.072021 
	C1049.238647,474.204041 1056.626831,469.547119 1062.498779,462.498993 
	C1064.789307,459.749756 1066.203003,456.780914 1066.055054,452.997833 
	C1065.730469,444.698364 1063.536377,437.034576 1060.100830,429.454285 
	C1053.461914,414.805481 1044.806396,401.258759 1037.635010,386.932404 
	C1033.335938,378.343994 1028.548584,369.884247 1025.266357,360.902649 
	C1023.385803,355.756409 1023.853088,349.745026 1025.384521,343.969391 
	C1027.984009,334.165924 1030.328613,324.291168 1032.865479,314.465271 
	C1034.338013,308.762115 1033.042969,302.540558 1031.662964,297.085236 
	C1030.059814,290.747375 1029.546631,284.295471 1028.062744,277.985260 
	C1025.397583,266.651550 1023.533752,255.132965 1020.010803,243.996597 
	C1014.942627,227.975754 1008.976379,212.322083 1000.980530,197.510498 
	C996.414307,189.051880 990.550476,181.449631 983.942261,174.555359 
	C967.974915,157.896927 949.095947,144.989761 929.555603,132.910095 
	C922.043640,128.266251 914.891296,123.012474 906.985046,119.029709 
	C893.642090,112.308266 880.570374,105.238411 866.093323,100.702187 
	C852.202026,96.349503 838.237244,92.666924 823.986328,90.075096 
	C804.663574,86.560837 785.265015,84.884132 765.481628,86.229683 
	C752.240479,87.130257 739.545898,89.106140 727.522461,94.549622 
	C713.098450,101.079948 699.731262,109.422310 687.514221,119.517189 
	C676.114441,128.936798 664.640808,138.281464 653.547241,148.053650 
	C638.650879,161.175644 625.670227,176.018585 614.433472,192.454514 
	C603.711487,208.137405 598.165588,225.564407 594.281433,243.953827 
	C591.942749,255.026138 588.811890,265.994720 586.015137,277.003845 
	C582.451477,291.031677 582.565796,305.031311 586.484741,319.004272 
	C589.891357,331.150391 594.142761,343.168671 596.230469,355.545471 
	C598.398132,368.396118 604.477051,379.844513 607.224670,392.451019 
	C609.271179,401.840851 615.167297,409.806244 621.553345,416.952301 
	C640.439880,438.086609 657.061646,460.843109 670.914856,485.547729 
	C676.327698,495.200317 680.322998,505.541992 679.475830,516.998230 
	C678.679565,527.766052 677.140442,538.407410 672.999878,548.499939 
	C670.392944,554.854492 665.399536,559.549805 661.466125,564.975464 
	C656.653809,571.613525 652.908936,579.083801 646.500000,584.500000 
"/>
<path fill="none" opacity="1.000000" stroke="#000000" stroke-linecap="round" stroke-linejoin="round" stroke-width="3.000000"
	d="
M447.500000,1232.500000 
	C444.023041,1230.833984 442.708344,1227.229736 440.578888,1224.439819 
	C434.512756,1216.492432 428.045898,1208.718140 422.783569,1200.322266 
	C417.666748,1192.158691 416.349274,1182.188721 414.912201,1172.513062 
	C412.442932,1155.888306 417.650696,1141.403320 425.963745,1127.478394 
	C435.273010,1111.884521 445.833282,1097.132446 456.666229,1082.624146 
	C462.569244,1074.718506 469.875458,1067.819946 475.981934,1059.985962 
	C481.783966,1052.542725 486.073730,1044.319702 487.989044,1034.997803 
	C489.379211,1028.231689 492.734009,1022.131470 494.492889,1015.498108 
	C497.186646,1005.338623 499.480530,995.057068 502.596130,985.029907 
	C505.920532,974.330872 508.071350,963.371460 510.306763,952.460388 
	C511.564819,946.319641 510.676239,939.734863 509.426636,933.514771 
	C506.520020,919.046448 502.732330,904.778320 499.179657,890.455444 
	C497.283905,882.812744 495.733673,875.040527 493.400055,867.531067 
	C489.927399,856.356445 483.513489,846.635620 477.031128,836.979126 
	C467.465149,822.729004 456.155640,809.893372 443.366730,798.651611 
	C426.466949,783.796448 409.793427,768.559692 390.988464,756.017334 
	C377.110779,746.761292 362.361786,739.244629 345.981781,735.581421 
	C337.643311,733.716553 328.964233,734.466553 320.508423,733.431213 
	C309.376740,732.068298 298.467773,734.189575 287.509644,735.114258 
	C272.793518,736.356079 258.137848,739.075317 244.086731,743.289246 
	C227.015991,748.408569 210.239792,754.245544 194.242889,763.031921 
	C175.527405,773.311523 157.630951,784.678223 140.098923,796.644958 
	C123.921021,807.687378 109.144287,820.503967 97.964798,836.976135 
	C90.949699,847.312378 85.664375,858.572144 81.183151,870.071350 
	C75.886429,883.663269 71.394104,897.629883 68.525917,912.005188 
	C65.903732,925.147461 63.157593,938.280457 61.114326,951.517639 
	C59.628048,961.146606 62.791664,970.345459 65.457512,979.512329 
	C67.183319,985.446716 69.447235,991.452637 69.750046,997.512512 
	C70.095589,1004.427307 67.760376,1011.181824 64.536720,1017.518677 
	C56.216404,1033.874023 47.562050,1050.036987 38.723705,1066.122925 
	C33.008537,1076.524658 28.089846,1087.651123 27.454514,1099.997681 
	C27.266678,1103.647827 28.387934,1106.862793 30.563908,1109.446167 
	C36.934277,1117.009399 44.740948,1122.222778 54.453217,1125.154907 
	C67.345306,1129.047241 70.685303,1140.652588 63.980953,1150.987671 
	C59.868965,1157.326416 59.993565,1164.304565 65.057381,1169.948486 
	C68.146690,1173.391724 71.149170,1177.326782 76.500000,1177.500000 
"/>
<path fill="none" opacity="1.000000" stroke="#000000" stroke-linecap="round" stroke-linejoin="round" stroke-width="2.000000"
	d="
M652.500000,1373.500000 
	C485.833344,1373.500000 319.166656,1373.500000 152.500000,1373.500000 
"/>
<path fill="none" opacity="1.000000" stroke="#000000" stroke-linecap="round" stroke-linejoin="round" stroke-width="2.000000"
	d="
M443.500000,1433.500000 
	C341.833344,1433.500000 240.166672,1433.500000 138.500000,1433.500000 
"/>
<path fill="none" opacity="1.000000" stroke="#000000" stroke-linecap="round" stroke-linejoin="round" stroke-width="3.000000"
	d="
M937.500000,1176.500000 
	C942.191895,1174.217651 943.486450,1169.085449 946.284302,1165.338867 
	C951.271606,1158.660278 957.255432,1152.714844 961.475769,1145.485840 
	C969.044861,1132.520508 975.843201,1119.232666 979.554443,1104.513672 
	C983.478027,1088.952393 987.961853,1073.533081 991.959290,1057.989502 
	C995.160645,1045.541260 997.978271,1032.994751 1001.005981,1020.501404 
	C1004.481018,1006.162048 1008.129639,991.862976 1011.421814,977.482117 
	C1012.425537,973.097412 1012.624390,968.509705 1012.977295,963.998230 
	C1014.137146,949.169678 1014.533386,934.425049 1013.338379,919.472961 
	C1012.248291,905.832825 1010.345032,892.395264 1006.229980,879.586731 
	C1001.356323,864.416748 996.088989,849.317078 987.800842,835.321838 
	C983.088013,827.363586 978.697571,819.193420 973.509094,811.493835 
	C967.703552,802.878418 958.939880,797.271179 951.238953,790.811218 
	C945.260315,785.795898 939.384827,780.554932 933.660950,775.323853 
	C921.063843,763.811401 907.429749,754.553772 891.028625,749.408813 
	C884.852173,747.471191 878.977051,744.553345 873.005005,741.988281 
	C862.282471,737.382751 850.723938,737.792297 839.482056,736.681335 
	C832.750183,736.015930 825.715271,735.591003 819.022766,737.100769 
	C808.632629,739.444763 798.530884,742.839417 788.467224,746.407471 
	C770.672485,752.716553 754.797424,762.636414 739.132324,772.705811 
	C727.333496,780.289917 716.560486,789.493530 707.429077,800.440857 
	C702.152771,806.766479 695.868347,812.249573 690.570862,818.559509 
	C682.860535,827.743530 675.891785,837.454041 669.885010,847.934082 
	C661.361816,862.804993 653.102173,877.765442 647.566589,894.022705 
	C644.110657,904.172424 642.976807,914.774475 642.972717,925.500000 
	C642.971069,929.833374 642.271790,934.193970 642.568848,938.495239 
	C643.801636,956.348633 644.165771,974.220215 646.632751,992.050781 
	C648.375977,1004.650818 649.958862,1017.347351 651.656433,1029.979004 
	C653.460876,1043.405884 656.349243,1056.697266 659.046387,1069.990601 
	C661.321228,1081.202881 663.835510,1092.373535 666.545837,1103.488770 
	C669.311768,1114.831787 674.376038,1125.323608 678.732300,1136.108154 
	C683.373047,1147.597046 689.073059,1158.203735 696.485901,1168.010620 
	C696.927795,1168.595215 696.987793,1169.616333 697.527039,1169.957275 
	C704.917664,1174.629395 702.980652,1181.685669 702.575989,1188.504517 
	C702.330200,1192.646606 702.959351,1196.832886 702.977051,1201.000122 
	C703.037048,1215.166504 703.554565,1229.361572 702.834717,1243.491577 
	C702.191284,1256.122925 700.535461,1268.704346 697.217896,1281.058472 
	C696.137756,1285.080811 694.573120,1289.181274 694.500000,1293.500000 
"/>
<path fill="none" opacity="1.000000" stroke="#000000" stroke-linecap="round" stroke-linejoin="round" stroke-width="3.000000"
	d="
M311.500000,1126.000000 
	C312.398285,1125.361450 313.007538,1123.337524 314.461487,1125.032959 
	C315.868774,1126.674072 317.390076,1128.235474 318.036774,1130.489502 
	C321.464020,1142.433960 339.168518,1144.392578 347.147705,1137.162964 
	C356.934814,1128.295410 363.500122,1117.259521 370.395386,1106.433350 
	C377.207397,1095.738281 383.435181,1084.644043 389.432159,1073.463623 
	C396.942963,1059.460693 402.230316,1044.840820 398.496460,1028.500854 
	C394.943756,1012.953430 386.070312,1001.683594 372.079346,993.858154 
	C364.264984,989.487305 356.746857,989.025391 348.480896,991.434448 
	C344.380493,992.629333 341.315491,995.062622 338.509766,998.009277 
	C333.577637,1003.189209 328.138489,1007.787292 321.458984,1010.394958 
	C317.401031,1011.979126 312.841888,1013.115295 309.500000,1008.500000 
"/>
<path fill="none" opacity="1.000000" stroke="#000000" stroke-linecap="round" stroke-linejoin="round" stroke-width="3.000000"
	d="
M386.500000,578.500000 
	C380.420715,584.087402 375.159332,590.454773 369.140808,596.148804 
	C357.285828,607.364502 344.683655,617.507202 329.927277,624.343018 
	C315.308960,631.114929 300.161072,636.315369 283.498535,636.183655 
	C272.157532,636.094055 260.833649,636.641968 249.495392,635.547729 
	C236.871750,634.329468 225.844574,629.462402 214.874268,623.221008 
	C201.826050,615.797424 189.840164,607.031067 178.063599,597.917847 
	C170.885651,592.363159 163.384766,586.765747 157.755951,579.793396 
	C151.628632,572.203491 147.488770,563.006592 142.503143,554.498169 
	C137.444672,545.865356 131.588226,537.673279 127.536957,528.483704 
	C122.727974,517.575378 119.023354,506.280518 117.062447,494.489624 
	C116.744759,492.579437 115.679764,491.161438 115.000000,489.500000 
"/>
<path fill="none" opacity="1.000000" stroke="#000000" stroke-linecap="round" stroke-linejoin="round" stroke-width="3.000000"
	d="
M73.500000,1178.000000 
	C69.008278,1182.120239 70.343208,1187.158081 71.581993,1191.978882 
	C72.297035,1194.761597 73.406761,1197.655640 75.113144,1199.914551 
	C77.039337,1202.464355 78.899590,1204.981323 83.603653,1203.287964 
	C88.121429,1201.661621 89.954185,1206.865723 91.944542,1210.034790 
	C96.009460,1216.507202 96.580307,1223.477295 95.090263,1231.017822 
	C91.526062,1249.054810 101.030640,1267.185547 115.238365,1276.403320 
	C127.259911,1284.202393 137.933685,1282.046265 148.925842,1277.327271 
	C162.943649,1271.309570 175.740463,1262.845825 188.463608,1254.444946 
	C196.330597,1249.250366 204.805359,1245.356567 213.556946,1242.155640 
	C217.204407,1240.821533 221.442169,1240.278809 225.500000,1241.500000 
"/>
<path fill="none" opacity="1.000000" stroke="#000000" stroke-linecap="round" stroke-linejoin="round" stroke-width="2.000000"
	d="
M271.500000,94.000000 
	C262.272675,94.443886 252.998245,94.920403 244.019318,97.080315 
	C225.403305,101.558434 207.967010,109.263374 190.401855,116.770363 
	C179.402802,121.471138 169.501373,127.648880 161.200714,135.706757 
	C151.237854,145.378220 140.517227,154.598663 133.444580,166.968307 
	C131.572800,170.241959 128.353210,172.515167 125.903374,175.418457 
	C113.939629,189.596558 106.679115,206.148453 101.047508,223.515411 
	C96.156654,238.597992 94.413231,254.274216 92.940071,269.994385 
	C92.296570,276.861145 90.812393,283.646179 90.064125,290.506989 
	C89.541031,295.303253 89.908592,300.162262 89.637062,305.007690 
	C89.219299,312.462250 87.775246,319.701141 86.608688,327.017334 
	C86.367561,328.529602 84.278030,330.911072 87.500000,332.000000 
"/>
<path fill="none" opacity="1.000000" stroke="#000000" stroke-linecap="round" stroke-linejoin="round" stroke-width="3.000000"
	d="
M167.500000,978.500000 
	C162.775558,971.969299 155.883621,967.987610 149.447754,963.576233 
	C141.867828,958.380615 133.488037,955.322937 123.995750,955.933960 
	C119.569099,956.218872 115.032661,957.026428 111.096893,958.299561 
	C101.844025,961.292542 92.033714,962.923767 83.489029,967.981445 
	C83.242180,968.127563 82.773964,967.882935 82.508804,968.017395 
	C77.782562,970.413757 75.359032,974.612122 77.000000,977.500000 
	C79.633667,982.134888 85.719299,984.271179 89.950203,981.425964 
	C97.222626,976.535461 105.141014,973.037598 113.532402,971.143555 
	C124.467010,968.675598 135.681503,969.112854 146.459808,972.142944 
	C153.888855,974.231567 160.984177,977.564575 168.517654,979.428650 
	C170.528809,979.926331 170.560776,981.015015 170.500000,982.500000 
"/>
<path fill="none" opacity="1.000000" stroke="#000000" stroke-linecap="round" stroke-linejoin="round" stroke-width="3.000000"
	d="
M924.000000,332.500000 
	C935.296692,328.332062 946.598877,323.884033 958.527466,322.194031 
	C966.615234,321.048157 974.991638,321.614563 982.992737,324.024200 
	C990.260681,326.213013 997.239563,329.170959 1003.448730,333.572357 
	C1005.759460,335.210297 1008.406555,335.674622 1010.423767,334.820068 
	C1013.478760,333.525879 1016.727661,331.587799 1016.980591,327.498810 
	C1017.221069,323.612244 1014.233704,321.846222 1011.465149,320.575958 
	C999.651489,315.155487 987.153687,311.884888 974.523499,308.900482 
	C962.686218,306.103333 952.966614,310.335846 943.487000,316.479980 
	C938.572632,319.665161 934.001038,323.275513 929.480225,326.975830 
	C928.113525,328.094482 926.319946,328.781616 926.500000,331.000000 
"/>
<path fill="none" opacity="1.000000" stroke="#000000" stroke-linecap="round" stroke-linejoin="round" stroke-width="3.000000"
	d="
M428.500000,479.500000 
	C434.415619,477.923126 437.772766,474.033936 440.722626,468.621307 
	C444.387512,461.896637 447.590454,454.865906 450.181396,447.881805 
	C455.164001,434.450928 458.578522,420.475098 460.202179,406.022705 
	C461.768066,392.084442 464.795776,378.291138 467.640717,364.529083 
	C468.369873,361.001953 471.007843,357.907349 472.459808,354.482971 
	C474.736115,349.114441 467.204834,337.797363 461.999268,337.979187 
	C458.269440,338.109436 454.998413,339.503510 452.035095,341.550812 
	C450.363007,342.706024 449.217773,344.620605 447.000000,345.000000 
"/>
<path fill="none" opacity="1.000000" stroke="#000000" stroke-linecap="round" stroke-linejoin="round" stroke-width="3.000000"
	d="
M1016.500000,530.000000 
	C1017.378296,530.058228 1018.252930,530.098022 1018.846985,529.313477 
	C1025.661011,537.619080 1024.116943,546.882996 1014.500000,556.500000 
	C1007.026550,554.843140 1005.266052,555.583069 1001.521851,562.511780 
	C998.222229,568.617737 996.692444,574.946899 998.441345,582.014526 
	C1003.042236,600.607483 992.809814,619.686584 978.189026,628.803162 
	C966.950012,635.811096 956.924194,634.687256 945.996826,630.007385 
	C931.073364,623.616150 917.539307,614.754150 904.084839,605.871521 
	C896.306274,600.736084 887.530029,597.940674 879.427979,593.635559 
	C877.931274,592.840332 875.205078,592.790039 873.538269,594.050659 
	C863.402954,601.715576 853.682190,609.815430 849.542480,622.513855 
	C848.538086,625.594910 846.049072,628.065369 846.000000,631.500000 
"/>
<path fill="none" opacity="1.000000" stroke="#000000" stroke-linecap="round" stroke-linejoin="round" stroke-width="3.000000"
	d="
M784.500000,360.500000 
	C779.214050,365.050690 775.932983,365.256897 768.520691,360.964233 
	C763.254883,357.914673 758.691284,353.916138 754.496643,349.503204 
	C747.124084,341.747162 735.294800,340.748596 724.900208,344.740173 
	C716.126648,348.109283 709.895569,354.229004 704.223328,360.695862 
	C698.154358,367.614990 695.666199,376.674805 694.415833,385.988708 
	C692.824219,397.844147 696.227417,408.556641 701.044128,418.979614 
	C706.284485,430.319427 712.872620,440.914612 719.408630,451.556122 
	C725.659363,461.733337 731.497375,472.141724 738.964417,481.528290 
	C741.731812,485.007019 745.026917,487.844116 748.515320,490.479736 
	C757.008301,496.896606 769.534180,493.866577 774.580811,484.543762 
	C776.143311,481.657318 777.060669,478.087158 780.384094,476.467621 
	C782.223450,476.795471 781.844116,478.492828 782.500000,479.500000 
"/>
<path fill="none" opacity="1.000000" stroke="#000000" stroke-linecap="round" stroke-linejoin="round" stroke-width="3.000000"
	d="
M636.000000,1014.500000 
	C634.186523,1007.399902 630.092102,1001.274353 627.378418,994.549072 
	C626.334900,991.962891 623.749207,990.186218 620.501038,990.510559 
	C617.225586,990.837708 616.515442,993.707886 615.548645,996.020325 
	C611.996399,1004.516663 612.821167,1013.271790 614.514709,1021.997131 
	C617.660034,1038.201904 622.322754,1054.075562 624.573975,1070.489868 
	C627.172852,1089.438599 632.828125,1107.283936 646.537415,1121.463867 
	C653.892029,1129.070923 661.133789,1136.828003 670.939819,1141.623047 
	C674.192505,1143.213623 677.146606,1143.682495 680.500000,1143.000000 
"/>
<path fill="none" opacity="1.000000" stroke="#000000" stroke-linecap="round" stroke-linejoin="round" stroke-width="3.000000"
	d="
M335.500000,520.500000 
	C337.138947,522.805542 337.217133,525.020447 334.995087,526.994446 
	C326.002411,534.983032 318.363953,544.623230 306.528595,549.075989 
	C299.207214,551.830444 291.677338,553.239929 283.993866,553.932007 
	C279.340240,554.351074 274.617096,554.650085 269.993988,554.771851 
	C260.968567,555.009705 251.762619,553.747375 243.587082,549.818787 
	C236.228195,546.282654 228.270981,543.672485 221.933182,538.075684 
	C220.184128,536.531128 218.245087,535.296448 217.523834,532.992554 
	C216.804047,530.693359 214.766068,530.041626 213.007401,530.136780 
	C211.008774,530.244812 211.306427,532.039917 212.000000,533.500000 
"/>
<path fill="none" opacity="1.000000" stroke="#000000" stroke-linecap="round" stroke-linejoin="round" stroke-width="2.000000"
	d="
M394.500000,149.500000 
	C378.776855,136.902481 362.895508,124.390556 345.836395,113.762604 
	C333.229614,105.908455 320.145447,98.110329 304.997925,95.512108 
	C294.579407,93.725044 284.097351,92.606865 273.500000,93.000000 
"/>
<path fill="none" opacity="1.000000" stroke="#000000" stroke-linecap="round" stroke-linejoin="round" stroke-width="3.000000"
	d="
M97.500000,372.000000 
	C93.250763,367.067200 91.208885,360.712952 86.610237,355.894775 
	C82.700073,351.797974 73.169083,349.192841 69.062447,351.132233 
	C62.776886,354.100647 59.318504,360.708038 64.108818,368.936646 
	C67.883545,375.420746 70.028091,382.197693 71.646790,389.467316 
	C74.301262,401.388611 75.994522,413.420471 77.474541,425.503113 
	C78.319138,432.398224 79.056595,439.267517 80.843262,446.041351 
	C81.632751,449.034576 82.999336,451.588379 84.580818,453.945770 
	C91.435020,464.162964 96.039986,475.847839 104.557747,484.945953 
	C106.717491,487.252869 108.628693,491.095459 112.989082,488.977509 
	C117.258652,486.903748 114.519142,483.299164 114.383804,480.505615 
	C114.100319,474.653717 113.181427,468.831604 112.495888,463.000488 
	C111.799232,457.074677 110.776962,451.239685 109.100197,445.470886 
	C107.785065,440.946228 107.624153,436.135681 106.677437,431.464050 
	C104.579620,421.112244 102.568565,410.749054 100.000000,400.500000 
"/>
<path fill="none" opacity="1.000000" stroke="#000000" stroke-linecap="round" stroke-linejoin="round" stroke-width="3.000000"
	d="
M400.500000,155.500000 
	C410.629486,162.836639 415.104797,174.210541 420.928497,184.540314 
	C428.171448,197.387497 431.188477,211.754471 433.835480,226.030502 
	C435.843536,236.860443 436.422668,247.948898 437.093597,258.994324 
	C438.240845,277.882019 437.956818,296.876495 442.337646,315.538116 
	C444.595154,325.154510 445.319122,335.150635 446.356110,345.015137 
	C446.537598,346.741791 445.034912,348.795135 443.963257,350.476593 
	C440.345001,356.153473 436.335297,361.593140 433.950623,367.981567 
	C433.834839,368.291656 433.000000,368.333313 432.500000,368.500000 
"/>
<path fill="none" opacity="1.000000" stroke="#000000" stroke-linecap="round" stroke-linejoin="round" stroke-width="3.000000"
	d="
M400.500000,338.500000 
	C396.584137,337.344208 394.546021,333.737213 391.621368,331.351227 
	C384.337555,325.408875 376.033386,322.537720 366.995178,322.099121 
	C351.020447,321.323883 335.765411,324.435730 321.464081,331.931458 
	C318.039368,333.726440 314.139709,334.597748 310.507233,336.018524 
	C306.516693,337.579376 303.076172,335.231506 299.544739,334.325592 
	C297.233398,333.732727 297.239075,330.727692 298.603149,329.085693 
	C300.157104,327.215149 302.285309,325.354004 304.535309,324.606262 
	C317.789795,320.200958 330.647797,314.611359 344.487946,311.937683 
	C367.128967,307.563812 384.602478,316.488068 399.464783,332.532623 
	C400.929230,334.113525 402.378937,336.030273 401.000000,338.500000 
"/>
<path fill="none" opacity="1.000000" stroke="#000000" stroke-linecap="round" stroke-linejoin="round" stroke-width="3.000000"
	d="
M431.500000,354.000000 
	C432.561493,360.309784 432.442352,366.740051 431.823303,372.982483 
	C431.012634,381.157471 431.793121,389.322113 430.647888,397.520660 
	C427.639984,419.053680 426.868774,440.763672 427.547150,462.498535 
	C427.734741,468.508209 427.983398,474.476929 427.599030,480.506317 
	C427.193176,486.872314 425.290527,492.859192 423.978516,498.995392 
	C421.646210,509.903412 418.832764,520.689575 414.480347,530.991699 
	C408.610809,544.884766 401.263397,557.909058 391.527252,569.522827 
	C388.795013,572.781982 386.715240,576.385559 387.463928,581.005859 
	C387.848511,583.379089 387.228668,585.734497 386.487915,587.996033 
	C384.623932,593.686951 384.208801,599.662598 383.635406,605.513245 
	C382.578949,616.292480 381.605103,627.192749 382.639374,637.986633 
	C383.712494,649.186584 384.290527,660.497375 387.049957,671.487488 
	C387.158325,671.919128 388.000000,672.166687 388.500000,672.500000 
"/>
<path fill="none" opacity="1.000000" stroke="#000000" stroke-linecap="round" stroke-linejoin="round" stroke-width="3.000000"
	d="
M966.000000,1140.000000 
	C969.324097,1142.824707 972.643860,1140.091187 975.436829,1139.281982 
	C985.602234,1136.336670 993.657471,1129.890381 999.953308,1121.465088 
	C1005.181274,1114.468872 1010.305908,1107.356567 1014.908752,1099.943359 
	C1019.017944,1093.325195 1020.743408,1085.676636 1021.422485,1077.993164 
	C1022.635925,1064.261963 1024.274414,1050.573364 1026.683105,1037.032593 
	C1027.956299,1029.875366 1030.826538,1022.887146 1034.564331,1016.537842 
	C1039.904419,1007.466736 1035.791870,993.626587 1031.022583,988.976868 
	C1028.396729,986.416931 1026.106812,986.593933 1023.477966,988.975708 
	C1017.783142,994.135437 1016.216431,1001.529297 1013.182678,1008.084534 
	C1012.580200,1009.386475 1010.836182,1010.612061 1011.500000,1012.500000 
"/>
<path fill="none" opacity="1.000000" stroke="#000000" stroke-linecap="round" stroke-linejoin="round" stroke-width="3.000000"
	d="
M75.500000,368.500000 
	C73.092323,371.727478 73.399475,375.676025 74.177551,378.957916 
	C75.947823,386.424744 78.170082,393.879120 81.183350,400.921539 
	C83.036781,405.253204 83.826149,409.687958 83.761986,413.996460 
	C83.695267,418.476501 83.482208,423.146881 83.799622,427.478027 
	C84.399467,435.662933 84.960472,444.316803 91.960754,450.544128 
	C95.518181,453.708771 98.639877,457.348969 99.000000,462.500000 
"/>
<path fill="none" opacity="1.000000" stroke="#000000" stroke-linecap="round" stroke-linejoin="round" stroke-width="3.000000"
	d="
M159.000000,582.500000 
	C157.619476,586.841187 160.366394,590.508728 161.114258,594.478455 
	C164.201324,610.865051 167.695877,627.060608 167.420395,644.006836 
	C167.316376,650.405212 166.865982,657.011963 167.500000,663.500000 
"/>
<path fill="none" opacity="1.000000" stroke="#000000" stroke-linecap="round" stroke-linejoin="round" stroke-width="3.000000"
	d="
M330.500000,1061.500000 
	C336.851318,1071.383789 334.424896,1080.115601 328.458099,1087.465942 
	C326.571106,1089.790527 324.926941,1092.129028 323.966034,1094.988647 
	C323.256165,1097.101196 323.003204,1098.925171 324.988281,1100.514648 
	C326.921509,1102.062622 328.957031,1101.722412 330.986725,1100.964478 
	C331.735626,1100.684692 332.474030,1100.112427 332.977783,1099.482300 
	C337.137421,1094.279175 342.588715,1092.707642 349.003693,1093.468994 
	C351.536865,1093.769531 353.767853,1093.141479 356.064148,1091.595337 
	C360.835754,1088.382568 364.665436,1084.457153 367.500000,1079.500000 
"/>
<path fill="none" opacity="1.000000" stroke="#000000" stroke-linecap="round" stroke-linejoin="round" stroke-width="2.000000"
	d="
M379.500000,360.500000 
	C378.975037,359.600861 375.600830,357.350677 373.522308,355.966522 
	C365.908356,350.896332 357.073975,348.194122 348.464813,347.365387 
	C335.679260,346.134583 323.318237,349.072510 314.489899,359.991821 
	C313.229462,361.550781 311.833344,363.000000 310.500000,364.500000 
"/>
<path fill="none" opacity="1.000000" stroke="#000000" stroke-linecap="round" stroke-linejoin="round" stroke-width="3.000000"
	d="
M155.000000,374.000000 
	C159.555588,383.034149 168.311813,385.232208 177.018799,386.902008 
	C189.006012,389.200897 201.039734,388.089233 213.017105,386.103119 
	C214.192322,385.908234 215.159943,385.477203 215.961121,384.941803 
	C219.339279,382.684509 222.961105,381.784393 227.002518,381.930176 
	C228.462601,381.982880 230.410706,383.048706 231.164154,380.041107 
	C231.750687,377.699860 231.133316,376.743561 229.525650,375.467682 
	C225.448364,372.231720 221.644226,368.636749 217.454193,365.562408 
	C214.126053,363.120483 210.231277,361.689270 206.000000,361.500000 
"/>
<path fill="none" opacity="1.000000" stroke="#000000" stroke-linecap="round" stroke-linejoin="round" stroke-width="3.000000"
	d="
M640.000000,1039.500000 
	C639.856018,1052.078003 641.587524,1064.295898 644.712280,1076.573242 
	C647.131714,1086.078735 651.094971,1094.711792 655.000000,1103.500000 
"/>
<path fill="none" opacity="1.000000" stroke="#000000" stroke-linecap="round" stroke-linejoin="round" stroke-width="3.000000"
	d="
M942.500061,1141.500000 
	C940.666748,1151.666626 938.705811,1161.812378 937.029907,1172.004883 
	C934.524841,1187.240723 932.965515,1202.615356 932.133545,1218.007202 
	C931.369690,1232.139893 930.744446,1246.350952 932.105713,1260.489868 
	C932.542847,1265.030029 933.387878,1269.579956 934.867004,1274.044067 
	C936.625488,1279.351196 936.237610,1285.232422 938.500000,1290.500000 
"/>
<path fill="none" opacity="1.000000" stroke="#000000" stroke-linecap="round" stroke-linejoin="round" stroke-width="3.000000"
	d="
M752.500000,403.500000 
	C756.442078,401.320679 757.909058,397.487152 758.979309,393.494446 
	C763.453857,376.801270 758.525757,367.736725 741.930115,360.152954 
	C728.838440,354.170410 714.472961,360.394226 707.989319,373.494720 
	C704.784363,379.970612 702.708557,386.914062 703.687988,393.973907 
	C704.761963,401.715820 706.912109,409.416626 712.500000,415.500000 
"/>
<path fill="none" opacity="1.000000" stroke="#000000" stroke-linecap="round" stroke-linejoin="round" stroke-width="3.000000"
	d="
M130.000000,344.000000 
	C133.362885,344.892426 135.452042,342.185791 136.825821,340.368347 
	C139.778534,336.462067 143.978165,335.369202 148.025757,334.080902 
	C159.537796,330.416809 171.067490,327.255341 183.513992,328.339325 
	C193.387833,329.199188 202.877151,331.544403 212.528931,333.344971 
	C218.580307,334.473877 224.653305,335.948669 231.007187,335.655823 
	C234.398071,335.499481 236.231949,333.546082 237.275146,331.391144 
	C237.999252,329.895386 235.658585,328.221863 234.039169,326.950134 
	C229.003525,322.995392 222.876785,322.363708 216.994781,321.022888 
	C202.520935,317.723419 187.729538,317.113434 172.996002,316.619080 
	C159.525253,316.167053 148.327286,322.386108 137.971542,330.463531 
	C131.028458,335.879120 128.487503,343.061798 128.500000,351.500000 
"/>
<path fill="none" opacity="1.000000" stroke="#000000" stroke-linecap="round" stroke-linejoin="round" stroke-width="3.000000"
	d="
M340.500000,1051.500000 
	C334.072083,1045.114136 333.041107,1036.786621 333.171417,1028.502686 
	C333.272247,1022.091309 337.805115,1017.401428 342.551422,1013.563599 
	C349.460449,1007.977173 357.268768,1002.873535 366.437439,1005.702759 
	C378.888489,1009.544983 386.420685,1018.721558 389.525970,1031.493652 
	C392.092499,1042.049927 388.004120,1051.253662 383.944366,1060.475464 
	C383.555115,1061.359619 382.893311,1062.533325 381.500000,1062.500000 
"/>
<path fill="none" opacity="1.000000" stroke="#000000" stroke-linecap="round" stroke-linejoin="round" stroke-width="3.000000"
	d="
M723.500000,360.000000 
	C728.217102,370.531403 725.157104,380.320465 719.882446,389.431946 
	C715.231140,397.466705 712.683105,405.863464 713.126038,414.993896 
	C713.329041,419.177490 715.789917,422.897339 717.993652,426.503876 
	C723.180176,434.991760 728.245728,443.555939 733.598389,451.937164 
	C734.365601,453.138489 734.238525,454.445404 735.000000,455.500000 
"/>
<path fill="none" opacity="1.000000" stroke="#000000" stroke-linecap="round" stroke-linejoin="round" stroke-width="3.000000"
	d="
M1004.500000,1041.500000 
	C1003.515991,1044.401001 1004.742554,1047.231323 1005.129517,1049.981812 
	C1006.555908,1060.119995 1004.470154,1069.668335 1000.944031,1078.978760 
	C998.409912,1085.669922 995.998474,1092.460815 992.000000,1098.500000 
"/>
<path fill="none" opacity="1.000000" stroke="#000000" stroke-linecap="round" stroke-linejoin="round" stroke-width="3.000000"
	d="
M180.500000,362.000000 
	C180.333328,365.833344 179.552902,369.766815 180.157959,373.474213 
	C180.886856,377.940308 184.955933,380.237061 188.525970,382.458252 
	C192.687149,385.047302 195.648056,382.534729 199.084244,380.119873 
	C205.431229,375.659302 208.247147,370.574127 206.500000,364.500000 
	C205.059906,359.493347 202.803085,358.615692 197.500000,361.000000 
"/>
<path fill="none" opacity="1.000000" stroke="#000000" stroke-linecap="round" stroke-linejoin="round" stroke-width="2.000000"
	d="
M139.500000,1004.500000 
	C130.436508,999.209717 121.046272,994.668884 111.010406,991.467407 
	C101.874619,988.553040 96.129807,992.165710 94.038925,998.512817 
	C93.695557,999.555176 93.814682,1000.783997 95.000000,1001.500000 
"/>
<path fill="none" opacity="1.000000" stroke="#000000" stroke-linecap="round" stroke-linejoin="round" stroke-width="2.000000"
	d="
M999.000000,353.500000 
	C999.931580,347.741547 997.221924,343.678131 991.490723,343.090790 
	C988.191589,342.752686 984.800354,342.641846 981.482300,343.955292 
	C972.079895,347.677094 962.547668,351.095367 954.500000,357.500000 
"/>
<path fill="none" opacity="1.000000" stroke="#000000" stroke-linecap="round" stroke-linejoin="round" stroke-width="3.000000"
	d="
M370.500000,1008.000000 
	C365.714447,1016.375610 368.202911,1024.498535 371.548340,1032.479736 
	C373.273285,1036.594971 375.698883,1040.414551 377.460663,1044.516846 
	C381.803894,1054.630127 382.557068,1064.338989 375.629364,1074.091919 
	C370.152985,1081.801758 365.918488,1090.385986 360.928864,1098.456055 
	C359.917450,1100.091919 359.587616,1101.801758 359.000000,1103.500000 
"/>
<path fill="none" opacity="1.000000" stroke="#000000" stroke-linecap="round" stroke-linejoin="round" stroke-width="3.000000"
	d="
M985.500000,352.000000 
	C980.531982,350.306061 976.332581,353.032440 972.023682,354.566589 
	C965.059998,357.045959 958.310364,360.083221 951.327148,364.409698 
	C960.588989,372.561218 969.203003,381.118561 982.009033,382.936584 
	C983.458069,383.142334 985.545715,383.834869 986.434448,381.968781 
	C987.351196,380.043823 988.386841,377.814972 986.000000,376.000000 
"/>
<path fill="none" opacity="1.000000" stroke="#000000" stroke-linecap="round" stroke-linejoin="round" stroke-width="2.000000"
	d="
M114.000000,1000.500000 
	C117.681046,999.378723 120.397133,1002.077759 123.462196,1003.112000 
	C130.049240,1005.334900 136.394836,1008.239868 142.948959,1012.630310 
	C133.152802,1019.111145 125.989685,1028.300049 114.009010,1030.061279 
	C107.537086,1031.012695 107.578659,1031.295532 105.753593,1024.017334 
	C118.270546,1023.999329 129.632141,1020.921082 138.000000,1011.000000 
"/>
<path fill="none" opacity="1.000000" stroke="#000000" stroke-linecap="round" stroke-linejoin="round" stroke-width="3.000000"
	d="
M763.500000,413.500000 
	C757.494873,423.775879 758.165100,430.229614 765.957458,440.033813 
	C767.770508,442.314880 768.664673,445.171387 769.804504,447.871460 
	C770.994934,450.691406 769.635559,451.788086 768.419067,452.912445 
	C766.742065,454.462402 764.465271,454.253387 762.517212,452.973785 
	C761.745605,452.466888 761.176331,451.656647 760.498413,451.001678 
	C756.167847,446.817535 751.164673,444.478302 745.001648,445.509857 
	C740.690796,446.231476 737.407043,444.254181 734.522156,441.476959 
	C731.096619,438.179230 727.471130,435.008484 725.500000,430.500000 
"/>
<path fill="none" opacity="1.000000" stroke="#000000" stroke-linecap="round" stroke-linejoin="round" stroke-width="3.000000"
	d="
M346.500000,357.000000 
	C347.544983,355.731049 348.928864,355.194702 350.496124,355.518768 
	C358.065796,357.083862 365.558258,358.340851 372.184204,363.251465 
	C375.167542,365.462433 378.653839,367.827484 383.274841,368.946259 
	C372.503906,379.297180 360.833344,384.561829 345.986786,383.738098 
	C335.072327,383.132507 324.415588,380.670441 313.500854,380.456055 
	C309.843872,380.384277 308.999207,378.035248 310.991089,374.494995 
	C314.874756,367.592529 321.291382,363.412323 327.500000,359.000000 
"/>
<path fill="none" opacity="1.000000" stroke="#000000" stroke-linecap="round" stroke-linejoin="round" stroke-width="3.000000"
	d="
M984.500000,458.500000 
	C985.799622,460.115265 985.042542,462.148529 985.814392,464.074402 
	C990.054016,474.652740 996.645752,478.550598 1007.495789,475.982208 
	C1010.523376,475.265503 1013.500000,474.333313 1016.500000,473.500000 
"/>
<path fill="none" opacity="1.000000" stroke="#000000" stroke-linecap="round" stroke-linejoin="round" stroke-width="3.000000"
	d="
M336.500000,523.000000 
	C327.173676,523.529175 317.795898,524.806274 308.514709,523.856323 
	C296.978912,522.675781 286.127350,526.059387 275.022034,527.653564 
	C271.302948,528.187439 268.150513,528.224121 264.443909,527.203735 
	C258.674133,525.615417 252.445465,525.984314 246.513229,526.622925 
	C236.797684,527.668701 227.166672,529.500000 217.500000,531.000000 
"/>
<path fill="none" opacity="1.000000" stroke="#000000" stroke-linecap="round" stroke-linejoin="round" stroke-width="3.000000"
	d="
M109.000000,1106.500000 
	C108.535858,1119.489136 98.397530,1127.941406 85.937828,1123.162109 
	C83.489632,1122.222900 80.414879,1122.673828 78.000000,1121.000000 
"/>
<path fill="none" opacity="1.000000" stroke="#000000" stroke-linecap="round" stroke-linejoin="round" stroke-width="3.000000"
	d="
M221.000000,1242.000000 
	C221.500000,1242.666626 221.859161,1243.567993 222.520859,1243.965210 
	C234.360062,1251.071167 241.476562,1261.775391 246.029510,1274.489380 
	C246.475555,1275.735107 247.333374,1276.833374 248.000031,1278.000000 
"/>
<path fill="none" opacity="1.000000" stroke="#000000" stroke-linecap="round" stroke-linejoin="round" stroke-width="3.000000"
	d="
M464.500000,350.000000 
	C460.919586,350.866943 460.143494,352.721680 460.855896,356.526978 
	C462.537933,365.511536 458.089905,373.583130 455.985260,381.996307 
	C455.936188,382.192352 455.525513,382.328888 455.520172,382.500610 
	C455.252228,391.117584 450.145813,398.688629 450.395874,407.502960 
	C450.589630,414.334106 450.350861,421.230591 448.995636,427.999115 
	C447.984467,433.049316 446.531830,437.895416 442.502167,441.502411 
	C440.990692,442.855347 439.593231,444.289276 439.500000,446.500000 
"/>
<path fill="none" opacity="1.000000" stroke="#000000" stroke-linecap="round" stroke-linejoin="round" stroke-width="3.000000"
	d="
M699.500000,1135.500000 
	C702.498169,1147.012085 702.025085,1158.773315 701.957336,1170.499756 
	C701.953491,1171.168335 701.333252,1171.833252 700.999939,1172.500000 
"/>
<path fill="none" opacity="1.000000" stroke="#000000" stroke-linecap="round" stroke-linejoin="round" stroke-width="3.000000"
	d="
M76.500000,1119.000000 
	C79.392204,1117.032227 79.499306,1114.889526 77.565887,1111.956543 
	C74.754448,1107.691650 70.756119,1105.826294 66.000923,1104.994751 
	C63.577114,1104.570801 61.789505,1105.619263 60.522224,1107.514893 
	C58.502216,1110.536377 61.481133,1112.267334 62.500000,1114.500000 
"/>
<path fill="none" opacity="1.000000" stroke="#000000" stroke-linecap="round" stroke-linejoin="round" stroke-width="3.000000"
	d="
M319.500000,455.500000 
	C320.000000,457.833344 320.663422,460.145508 320.968506,462.504059 
	C321.794708,468.891541 319.155212,473.554535 313.493073,476.486603 
	C308.860382,478.885590 304.166656,481.166656 299.500000,483.500000 
"/>
<path fill="none" opacity="1.000000" stroke="#000000" stroke-linecap="round" stroke-linejoin="round" stroke-width="3.000000"
	d="
M221.500000,464.500000 
	C221.333328,467.500000 220.898346,470.514069 221.054794,473.497131 
	C221.401367,480.105072 224.502563,484.901978 231.999680,485.020508 
	C233.835175,485.049530 235.666672,485.333313 237.500000,485.499969 
"/>
<path fill="none" opacity="1.000000" stroke="#000000" stroke-linecap="round" stroke-linejoin="round" stroke-width="3.000000"
	d="
M448.000000,364.500000 
	C449.929993,370.018036 449.527405,375.820221 449.931976,381.504852 
	C450.240631,385.842041 450.222595,390.200836 451.000000,394.500000 
"/>
<path fill="none" opacity="1.000000" stroke="#000000" stroke-linecap="round" stroke-linejoin="round" stroke-width="3.000000"
	d="
M308.500000,509.500000 
	C297.395752,507.888306 286.970856,510.320740 276.406311,513.707764 
	C271.969208,515.130249 266.055573,514.463318 261.611847,512.715576 
	C255.982513,510.501587 250.795242,511.763000 246.084976,513.266296 
	C238.577957,515.662170 231.111160,518.971008 225.544556,525.040833 
	C223.838974,526.900635 220.301880,526.648743 220.000000,530.000000 
"/>
<path fill="none" opacity="1.000000" stroke="#000000" stroke-linecap="round" stroke-linejoin="round" stroke-width="4.000000"
	d="
M554.500000,6.500000 
	C554.500000,12.500000 554.500000,18.500000 554.500000,24.518932 
	C558.132629,25.415339 561.833191,24.837023 565.500000,25.000000 
"/>
<path fill="none" opacity="1.000000" stroke="#000000" stroke-linecap="round" stroke-linejoin="round" stroke-width="3.000000"
	d="
M233.500000,476.500000 
	C236.677734,475.055359 239.970566,474.469940 243.499039,474.424652 
	C248.094147,474.365631 251.799377,474.736603 254.690048,479.381744 
	C257.108826,483.268585 261.812500,484.874969 266.500000,485.500000 
"/>
<path fill="none" opacity="1.000000" stroke="#000000" stroke-linecap="round" stroke-linejoin="round" stroke-width="3.000000"
	d="
M1030.500000,466.500000 
	C1032.662598,465.774597 1033.105225,463.711517 1034.251343,462.364655 
	C1030.024048,456.232208 1025.987549,455.366730 1020.555481,459.571686 
	C1018.545227,461.127899 1017.211792,463.539856 1015.489014,465.490295 
	C1013.137878,468.152130 1015.458130,469.450806 1017.000000,471.000000 
"/>
<path fill="none" opacity="1.000000" stroke="#000000" stroke-linecap="round" stroke-linejoin="round" stroke-width="3.000000"
	d="
M314.000000,372.000000 
	C315.698669,375.586884 318.440308,377.414612 322.498871,377.537537 
	C328.082214,377.706665 333.587280,380.492371 339.250000,378.000000 
"/>
<path fill="none" opacity="1.000000" stroke="#000000" stroke-linecap="round" stroke-linejoin="round" stroke-width="3.000000"
	d="
M303.000000,470.000000 
	C297.183777,469.607300 291.859467,470.149750 287.914581,475.436279 
	C285.902039,478.133331 283.000000,480.166656 280.500000,482.500000 
"/>
<path fill="none" opacity="1.000000" stroke="#000000" stroke-linecap="round" stroke-linejoin="round" stroke-width="2.000000"
	d="
M377.500000,367.000000 
	C368.811829,376.276001 358.558289,381.377655 345.500000,379.000000 
"/>
<path fill="none" opacity="1.000000" stroke="#000000" stroke-linecap="round" stroke-linejoin="round" stroke-width="4.000000"
	d="
M98.500000,372.750000 
	C99.746956,380.487488 100.243576,388.214966 98.869568,396.021057 
	C98.693016,397.024078 98.290306,398.931000 100.000000,399.750000 
"/>
<path fill="none" opacity="1.000000" stroke="#000000" stroke-linecap="round" stroke-linejoin="round" stroke-width="3.000000"
	d="
M134.000000,1362.000000 
	C137.002457,1361.688843 140.156372,1362.740723 143.077194,1361.230713 
	C142.665680,1356.689087 139.475525,1356.605347 136.516174,1357.097290 
	C133.887482,1357.534302 132.497787,1361.527344 133.500000,1364.500000 
	C134.540955,1367.587646 137.625519,1369.093994 140.980057,1367.941895 
	C141.781174,1367.666626 142.333374,1366.666748 143.000046,1366.000000 
"/>
<path fill="none" opacity="1.000000" stroke="#000000" stroke-linecap="round" stroke-linejoin="round" stroke-width="3.000000"
	d="
M87.500000,380.500000 
	C84.372749,385.171936 86.787010,390.557831 85.594902,395.522797 
	C84.967171,398.137268 85.448402,401.011169 84.000000,403.500000 
"/>
<path fill="none" opacity="1.000000" stroke="#000000" stroke-linecap="round" stroke-linejoin="round" stroke-width="2.000000"
	d="
M955.500000,363.000000 
	C961.446777,369.962433 969.073730,373.900574 978.000000,375.500000 
"/>
<path fill="none" opacity="1.000000" stroke="#000000" stroke-linecap="round" stroke-linejoin="round" stroke-width="3.000000"
	d="
M120.000000,1422.000000 
	C123.002457,1421.688843 126.156372,1422.740723 129.077194,1421.230713 
	C128.665680,1416.689087 125.475540,1416.605347 122.516174,1417.097290 
	C119.887489,1417.534302 118.497818,1421.527466 119.499969,1424.500000 
	C120.540993,1427.587769 123.625587,1429.094238 126.980057,1427.941895 
	C127.781181,1427.666748 128.333328,1426.666626 129.000000,1426.000000 
"/>
<path fill="none" opacity="1.000000" stroke="#000000" stroke-linecap="round" stroke-linejoin="round" stroke-width="3.000000"
	d="
M459.500000,353.500000 
	C458.364441,352.853241 457.381805,353.121460 456.499878,353.999878 
	C448.744049,361.724731 441.333405,369.692902 436.961945,379.983826 
	C436.029541,382.178894 435.553467,384.937683 432.500000,385.500000 
"/>
<path fill="none" opacity="1.000000" stroke="#000000" stroke-linecap="round" stroke-linejoin="round" stroke-width="3.000000"
	d="
M980.000000,353.000000 
	C977.948242,358.325836 974.578552,363.285980 975.965759,369.507629 
	C976.921875,373.795837 979.088257,376.081970 982.500427,376.025116 
	C984.113892,375.998260 985.118164,375.539062 986.061523,374.038696 
	C989.061768,369.267365 992.607849,364.816650 995.299500,359.890472 
	C995.941284,358.715912 997.728699,356.408142 995.965942,354.532013 
	C994.837219,353.330811 994.386475,350.728455 992.026306,351.573486 
	C989.887390,352.339325 987.181091,353.096680 987.081299,356.002777 
	C987.015686,357.914124 985.686279,359.242310 985.503845,361.000397 
	C985.237854,363.563446 983.480225,363.701721 981.500000,363.500000 
"/>
<path fill="none" opacity="1.000000" stroke="#000000" stroke-linecap="round" stroke-linejoin="round" stroke-width="3.000000"
	d="
M86.000000,332.500000 
	C83.736130,337.581024 86.103699,342.502075 86.410789,347.505463 
	C86.551071,349.791046 87.530037,352.264038 86.000000,354.500000 
"/>
<path fill="none" opacity="1.000000" stroke="#000000" stroke-linecap="round" stroke-linejoin="round" stroke-width="3.000000"
	d="
M530.000000,13.500000 
	C527.333313,11.415474 524.652283,10.625834 522.004639,13.504254 
	C519.942749,15.745887 520.025024,20.719929 521.984619,23.013165 
	C524.712463,26.205595 527.333313,24.927528 530.000000,23.000000 
"/>
<path fill="none" opacity="1.000000" stroke="#000000" stroke-linecap="round" stroke-linejoin="round" stroke-width="3.000000"
	d="
M107.500000,999.000000 
	C109.892593,996.257385 111.832748,999.173462 112.880577,1000.130737 
	C118.700562,1005.447449 119.608124,1014.923767 115.500000,1022.500000 
"/>
<path fill="none" opacity="1.000000" stroke="#000000" stroke-linecap="round" stroke-linejoin="round" stroke-width="2.000000"
	d="
M205.500000,352.500000 
	C200.637573,352.044250 196.048874,350.373383 191.002060,350.316528 
	C181.946426,350.214539 174.350067,354.058563 166.500000,357.500000 
"/>
<path fill="none" opacity="1.000000" stroke="#000000" stroke-linecap="round" stroke-linejoin="round" stroke-width="2.000000"
	d="
M160.500000,370.500000 
	C161.081100,374.889313 165.190247,375.993378 168.090836,377.298065 
	C173.851074,379.889008 179.780334,382.773468 186.500000,382.000000 
"/>
<path fill="none" opacity="1.000000" stroke="#000000" stroke-linecap="round" stroke-linejoin="round" stroke-width="3.000000"
	d="
M578.500000,17.999998 
	C576.666687,18.166666 574.793640,18.154713 573.011230,18.550518 
	C571.249084,18.941814 569.051208,19.363878 569.532043,21.994139 
	C570.098267,25.091297 572.610291,25.387182 574.979675,24.900883 
	C576.423218,24.604605 577.666687,23.333319 579.000000,22.499985 
"/>
<path fill="none" opacity="1.000000" stroke="#000000" stroke-linecap="round" stroke-linejoin="round" stroke-width="2.000000"
	d="
M219.000000,382.000000 
	C213.793335,380.926941 208.659821,381.772797 203.491257,382.431335 
	C201.840973,382.641602 200.327057,384.437225 198.500000,383.000000 
"/>
<path fill="none" opacity="1.000000" stroke="#000000" stroke-linecap="round" stroke-linejoin="round" stroke-width="3.000000"
	d="
M445.500000,426.500000 
	C444.639221,429.526215 442.656036,431.921112 441.000061,434.500061 
	C433.723267,432.100006 429.504150,437.100464 431.500000,444.500000 
"/>
<path fill="none" opacity="1.000000" stroke="#000000" stroke-linecap="round" stroke-linejoin="round" stroke-width="8.000000"
	d="
M109.000000,1011.000000 
	C108.000000,1008.166687 106.816177,1005.382019 106.049500,1002.486877 
	C105.211220,999.321289 102.781685,998.819824 100.552254,999.641724 
	C98.250854,1000.490234 97.141609,1002.844604 98.014290,1005.495300 
	C99.650200,1010.464111 102.964745,1014.520508 105.527634,1018.984131 
	C106.351303,1020.418701 107.500015,1021.666626 108.500015,1023.000000 
"/>
<path fill="none" opacity="1.000000" stroke="#000000" stroke-linecap="round" stroke-linejoin="round" stroke-width="3.000000"
	d="
M637.000000,5.500000 
	C637.000000,12.166667 637.000000,18.833334 637.000000,25.500000 
"/>
<path fill="none" opacity="1.000000" stroke="#000000" stroke-linecap="round" stroke-linejoin="round" stroke-width="3.000000"
	d="
M330.500000,359.000000 
	C331.206818,362.860840 330.773010,367.014648 333.026764,370.482605 
	C335.744293,374.664185 338.400452,379.091034 344.500000,378.500000 
"/>
<path fill="none" opacity="1.000000" stroke="#000000" stroke-linecap="round" stroke-linejoin="round" stroke-width="3.000000"
	d="
M190.500000,358.500000 
	C190.160355,358.942352 190.974030,360.315186 190.033432,359.920380 
	C184.867889,357.752075 180.522720,360.909271 176.038895,362.141541 
	C168.486984,364.217041 161.694168,368.132874 155.485428,372.981323 
	C154.358353,373.861420 152.926971,374.041229 151.500000,374.000000 
"/>
<path fill="none" opacity="1.000000" stroke="#000000" stroke-linecap="round" stroke-linejoin="round" stroke-width="3.000000"
	d="
M352.500000,1037.500000 
	C346.740234,1032.842651 340.647614,1034.176147 334.500000,1036.500000 
"/>
<path fill="none" opacity="1.000000" stroke="#000000" stroke-linecap="round" stroke-linejoin="round" stroke-width="3.000000"
	d="
M500.000000,22.000000 
	C498.831696,23.220055 497.723022,24.692762 495.992920,24.952875 
	C492.828613,25.428604 490.115265,24.305637 488.550598,21.472065 
	C487.272980,19.158350 488.934509,13.504592 491.011505,12.524403 
	C493.970490,11.128017 496.741058,11.238599 499.012177,13.989959 
	C499.661438,14.776511 500.291412,15.189850 499.615326,16.557030 
	C498.936646,17.929466 498.065277,17.963013 496.999695,17.984146 
	C494.500671,18.033709 492.000000,18.000000 489.500000,18.000000 
"/>
<path fill="none" opacity="1.000000" stroke="#000000" stroke-linecap="round" stroke-linejoin="round" stroke-width="3.000000"
	d="
M128.000000,1368.500000 
	C128.000000,1364.825806 128.000000,1361.151489 128.000000,1357.741333 
	C124.845802,1355.887329 122.994827,1357.755371 121.000000,1359.000000 
"/>
<path fill="none" opacity="1.000000" stroke="#000000" stroke-linecap="round" stroke-linejoin="round" stroke-width="3.000000"
	d="
M355.500000,357.500000 
	C356.570801,362.376007 358.275055,367.130798 355.104218,372.066956 
	C353.629120,374.363251 352.490204,376.151276 349.500000,375.500000 
"/>
<path fill="none" opacity="1.000000" stroke="#000000" stroke-linecap="round" stroke-linejoin="round" stroke-width="3.000000"
	d="
M71.500000,364.500000 
	C79.369377,369.016510 85.814140,375.263092 90.818085,382.623657 
	C93.606003,386.724579 94.706200,391.998016 98.000000,396.000000 
"/>
<path fill="none" opacity="1.000000" stroke="#000000" stroke-linecap="round" stroke-linejoin="round" stroke-width="3.000000"
	d="
M758.500000,388.500000 
	C752.932190,386.428894 747.386475,385.086914 742.000000,389.000000 
"/>
<path fill="none" opacity="1.000000" stroke="#000000" stroke-linecap="round" stroke-linejoin="round" stroke-width="2.000000"
	d="
M435.000000,385.500000 
	C436.166656,390.833344 437.333344,396.166656 438.500000,401.500000 
"/>
<path fill="none" opacity="1.000000" stroke="#000000" stroke-linecap="round" stroke-linejoin="round" stroke-width="3.000000"
	d="
M594.500000,18.000000 
	C598.001831,18.000000 601.503662,18.000000 605.045349,18.000000 
	C605.040710,14.114511 603.573059,12.292570 600.005798,11.941383 
	C596.341919,11.580696 594.265686,13.637657 593.647827,16.531555 
	C593.000977,19.561321 593.182434,23.097164 597.013245,24.462900 
	C600.374268,25.661150 603.348938,25.208204 605.000000,21.500000 
"/>
<path fill="none" opacity="1.000000" stroke="#000000" stroke-linecap="round" stroke-linejoin="round" stroke-width="3.000000"
	d="
M672.500000,18.000000 
	C676.001831,18.000000 679.503662,18.000000 683.045349,18.000000 
	C683.040710,14.114511 681.573059,12.292570 678.005798,11.941387 
	C674.341919,11.580696 672.265625,13.637645 671.647827,16.531555 
	C671.000977,19.561321 671.182434,23.097164 675.013245,24.462887 
	C678.374268,25.661150 681.348938,25.208204 683.000000,21.500000 
"/>
<path fill="none" opacity="1.000000" stroke="#000000" stroke-linecap="round" stroke-linejoin="round" stroke-width="3.000000"
	d="
M550.500000,18.000000 
	C545.500000,18.000000 540.500000,18.000000 535.500000,18.000000 
"/>
<path fill="none" opacity="1.000000" stroke="#000000" stroke-linecap="round" stroke-linejoin="round" stroke-width="3.000000"
	d="
M587.000000,6.500000 
	C587.000000,11.500000 587.062500,16.501108 586.973816,21.499537 
	C586.928955,24.029961 587.972229,25.194439 590.500000,25.000000 
"/>
<path fill="none" opacity="1.000000" stroke="#000000" stroke-linecap="round" stroke-linejoin="round" stroke-width="3.000000"
	d="
M666.000000,11.500000 
	C666.000000,16.166666 666.000000,20.833334 666.000000,25.500000 
"/>
<path fill="none" opacity="1.000000" stroke="#000000" stroke-linecap="round" stroke-linejoin="round" stroke-width="3.000000"
	d="
M581.500000,25.000000 
	C577.647522,23.744936 580.118164,20.252069 579.202698,17.920424 
	C578.591003,16.362503 580.766052,13.616377 577.969116,12.583728 
	C575.233521,11.573756 572.205444,11.040096 570.000000,14.000000 
"/>
<path fill="none" opacity="1.000000" stroke="#000000" stroke-linecap="round" stroke-linejoin="round" stroke-width="3.000000"
	d="
M93.000000,1351.500000 
	C92.463257,1356.152100 94.157974,1360.963623 92.000000,1365.500000 
"/>
<path fill="none" opacity="1.000000" stroke="#000000" stroke-linecap="round" stroke-linejoin="round" stroke-width="3.000000"
	d="
M514.500000,23.000000 
	C516.023499,20.418135 513.907654,17.731310 514.860718,14.952229 
	C515.612122,12.761142 513.597900,11.976874 511.499939,11.982840 
	C509.254700,11.989224 506.961212,11.716941 505.500000,14.000000 
"/>
<path fill="none" opacity="1.000000" stroke="#000000" stroke-linecap="round" stroke-linejoin="round" stroke-width="3.000000"
	d="
M661.500000,11.500000 
	C658.731323,12.615647 659.513550,15.511487 658.462341,17.479895 
	C657.331238,19.598108 657.468628,22.280397 655.271362,24.212519 
	C652.617920,20.294788 651.501465,15.812678 650.000000,11.500000 
"/>
<path fill="none" opacity="1.000000" stroke="#000000" stroke-linecap="round" stroke-linejoin="round" stroke-width="3.000000"
	d="
M629.500000,23.000000 
	C631.023499,20.418135 628.907654,17.731310 629.860718,14.952229 
	C630.612122,12.761152 628.597900,11.976874 626.499939,11.982839 
	C624.254700,11.989223 621.961182,11.716941 620.500000,14.000000 
"/>
<path fill="none" opacity="1.000000" stroke="#000000" stroke-linecap="round" stroke-linejoin="round" stroke-width="3.000000"
	d="
M82.500000,1355.000000 
	C81.442673,1359.467041 82.264664,1364.003662 82.000000,1368.500000 
"/>
<path fill="none" opacity="1.000000" stroke="#000000" stroke-linecap="round" stroke-linejoin="round" stroke-width="3.000000"
	d="
M113.500000,1412.500000 
	C112.384979,1416.628784 113.253021,1420.836182 113.014702,1425.000854 
	C112.875969,1427.425049 114.402298,1428.086182 116.500000,1428.000000 
"/>
<path fill="none" opacity="1.000000" stroke="#000000" stroke-linecap="round" stroke-linejoin="round" stroke-width="3.000000"
	d="
M647.000000,1003.500000 
	C642.661499,1004.594849 639.490479,1008.236816 635.000000,1009.000000 
"/>
<path fill="none" opacity="1.000000" stroke="#000000" stroke-linecap="round" stroke-linejoin="round" stroke-width="3.000000"
	d="
M106.500000,1362.000000 
	C104.363907,1361.516846 102.495232,1362.647217 100.504105,1363.021851 
	C98.827354,1363.337158 98.927261,1364.611450 98.951996,1366.000854 
	C98.985870,1367.903564 100.065056,1367.897949 101.494873,1368.048706 
	C103.878922,1368.299805 106.933136,1367.508911 107.224396,1365.948608 
	C107.714203,1363.324585 108.900139,1359.599976 106.374283,1357.664062 
	C104.207733,1356.003540 101.064606,1356.322998 99.000000,1359.000000 
"/>
<path fill="none" opacity="1.000000" stroke="#000000" stroke-linecap="round" stroke-linejoin="round" stroke-width="3.000000"
	d="
M100.500000,359.500000 
	C98.934265,363.366791 101.311737,367.726471 99.000000,371.500000 
"/>
<path fill="none" opacity="1.000000" stroke="#000000" stroke-linecap="round" stroke-linejoin="round" stroke-width="3.000000"
	d="
M469.500000,15.000000 
	C473.500000,15.000000 477.500000,15.000000 481.500000,15.000000 
"/>
<path fill="none" opacity="1.000000" stroke="#000000" stroke-linecap="round" stroke-linejoin="round" stroke-width="3.000000"
	d="
M615.000000,11.500000 
	C611.501099,12.334028 610.774109,14.809460 610.969482,18.001869 
	C611.121887,20.492542 611.000000,23.000000 611.000000,25.500000 
"/>
<path fill="none" opacity="1.000000" stroke="#000000" stroke-linecap="round" stroke-linejoin="round" stroke-width="3.000000"
	d="
M106.500000,1422.000000 
	C104.363907,1421.516846 102.495255,1422.647339 100.504128,1423.021973 
	C98.827400,1423.337402 98.927254,1424.611450 98.951988,1426.000854 
	C98.985863,1427.903564 100.065041,1427.898071 101.494873,1428.048706 
	C103.878906,1428.299927 106.933167,1427.508911 107.224426,1425.948608 
	C107.714218,1423.324585 108.900063,1419.600098 106.374207,1417.664062 
	C104.207657,1416.003540 101.064606,1416.322998 99.000000,1419.000000 
"/>
<path fill="none" opacity="1.000000" stroke="#000000" stroke-linecap="round" stroke-linejoin="round" stroke-width="4.000000"
	d="
M98.500000,435.500000 
	C101.082253,438.775665 102.392395,443.398254 107.500000,444.000000 
"/>
<path fill="none" opacity="1.000000" stroke="#000000" stroke-linecap="round" stroke-linejoin="round" stroke-width="3.000000"
	d="
M705.000000,11.500000 
	C703.327209,15.664218 702.758240,20.269968 700.000000,24.000000 
"/>
<path fill="none" opacity="1.000000" stroke="#000000" stroke-linecap="round" stroke-linejoin="round" stroke-width="3.000000"
	d="
M687.000000,11.500000 
	C688.379883,15.317150 688.926514,19.424114 691.000000,23.000000 
"/>
<path fill="none" opacity="1.000000" stroke="#000000" stroke-linecap="round" stroke-linejoin="round" stroke-width="3.000000"
	d="
M696.000000,13.000000 
	C693.175232,16.314949 694.115845,21.103304 691.500000,24.500000 
"/>
<path fill="none" opacity="1.000000" stroke="#000000" stroke-linecap="round" stroke-linejoin="round" stroke-width="3.000000"
	d="
M99.000000,400.500000 
	C96.193436,403.644867 96.473488,407.771881 95.500000,411.500000 
"/>
<path fill="none" opacity="1.000000" stroke="#000000" stroke-linecap="round" stroke-linejoin="round" stroke-width="3.000000"
	d="
M82.500031,1352.500000 
	C85.833359,1357.500000 89.166695,1362.500000 92.500031,1367.500000 
"/>
<path fill="none" opacity="1.000000" stroke="#000000" stroke-linecap="round" stroke-linejoin="round" stroke-width="3.000000"
	d="
M514.000000,17.500000 
	C510.854340,19.044369 506.074982,17.139778 504.442841,22.176504 
	C506.314240,25.238245 508.683075,26.123503 512.030090,24.048532 
	C513.075439,23.400486 514.728760,21.565147 515.500000,24.500000 
"/>
<path fill="none" opacity="1.000000" stroke="#000000" stroke-linecap="round" stroke-linejoin="round" stroke-width="3.000000"
	d="
M629.000000,17.500000 
	C625.854370,19.044369 621.075012,17.139778 619.442810,22.176504 
	C621.314270,25.238245 623.683044,26.123514 627.030090,24.048523 
	C628.075378,23.400475 629.728760,21.565147 630.500000,24.500000 
"/>
<path fill="none" opacity="1.000000" stroke="#000000" stroke-linecap="round" stroke-linejoin="round" stroke-width="3.000000"
	d="
M121.000000,1368.500000 
	C121.000000,1366.000000 121.167969,1363.485229 120.950394,1361.004395 
	C120.752617,1358.749268 120.147400,1356.631104 116.996765,1356.969849 
	C114.172424,1357.273804 112.727524,1358.465698 112.964104,1361.502808 
	C113.144775,1363.822144 113.000000,1366.166626 113.000000,1368.500000 
"/>
<path fill="none" opacity="1.000000" stroke="#000000" stroke-linecap="round" stroke-linejoin="round" stroke-width="2.000000"
	d="
M321.500000,514.500000 
	C325.833313,516.333374 330.166656,518.166687 334.500000,520.000000 
"/>
<path fill="none" opacity="1.000000" stroke="#000000" stroke-linecap="round" stroke-linejoin="round" stroke-width="3.000000"
	d="
M531.000000,5.500000 
	C531.000000,12.166667 531.000000,18.833334 531.000000,25.500000 
"/>
<path fill="none" opacity="1.000000" stroke="#000000" stroke-linecap="round" stroke-linejoin="round" stroke-width="3.000000"
	d="
M339.500000,357.000000 
	C335.352112,353.971039 332.252258,358.627777 328.500000,358.500000 
"/>
<path fill="none" opacity="1.000000" stroke="#000000" stroke-linecap="round" stroke-linejoin="round" stroke-width="4.000000"
	d="
M468.500000,6.500000 
	C468.500000,12.500000 468.500000,18.500000 468.500000,24.500000 
"/>
<path fill="none" opacity="1.000000" stroke="#000000" stroke-linecap="round" stroke-linejoin="round" stroke-width="4.000000"
	d="
M482.500000,6.500000 
	C482.500000,12.500000 482.500000,18.500000 482.500000,24.500000 
"/>
<path fill="none" opacity="1.000000" stroke="#000000" stroke-linecap="round" stroke-linejoin="round" stroke-width="3.000000"
	d="
M696.000000,14.500000 
	C698.884583,16.603327 697.617310,20.660477 700.000000,23.000000 
"/>
<path fill="none" opacity="1.000000" stroke="#000000" stroke-linecap="round" stroke-linejoin="round" stroke-width="3.000000"
	d="
M344.500000,521.000000 
	C341.726929,520.642639 339.505920,522.355469 337.000000,523.000000 
"/>
<path fill="none" opacity="1.000000" stroke="#000000" stroke-linecap="round" stroke-linejoin="round" stroke-width="3.000000"
	d="
M1006.000000,1002.500000 
	C1008.500000,1003.500000 1011.000000,1004.500000 1013.500000,1005.500000 
"/>
<path fill="none" opacity="1.000000" stroke="#000000" stroke-linecap="round" stroke-linejoin="round" stroke-width="3.000000"
	d="
M756.500000,372.500000 
	C754.117554,372.770813 752.019409,374.368256 749.500000,374.000000 
"/>
<path fill="none" opacity="1.000000" stroke="#000000" stroke-linecap="round" stroke-linejoin="round" stroke-width="3.000000"
	d="
M338.000000,1020.500000 
	C340.174225,1020.784119 342.172882,1022.209595 344.500000,1021.500000 
"/>
<path fill="none" opacity="1.000000" stroke="#000000" stroke-linecap="round" stroke-linejoin="round" stroke-width="3.000000"
	d="
M590.500000,12.000000 
	C588.166687,12.000000 585.833313,12.000000 583.500000,12.000000 
"/>
<path fill="none" opacity="1.000000" stroke="#000000" stroke-linecap="round" stroke-linejoin="round" stroke-width="3.000000"
	d="
M116.500000,1417.000000 
	C114.500000,1417.000000 112.500000,1417.000000 110.500000,1417.000000 
"/>
<path fill="none" opacity="1.000000" stroke="#000000" stroke-linecap="round" stroke-linejoin="round" stroke-width="3.000000"
	d="
M83.500000,1412.000000 
	C81.573616,1412.286865 82.015182,1413.781128 82.008621,1415.000000 
	C81.986137,1419.173218 82.000000,1423.346680 82.000000,1427.432373 
	C91.768944,1428.753784 95.647011,1425.052002 93.500000,1417.000000 
	C92.362549,1412.734253 90.967400,1412.000000 84.000000,1412.000000 
"/>
</svg>